HIERARCHY
ROOT Hips
{
	OFFSET 0.000000 0.000000 0.000000 
	CHANNELS 6 Xposition Yposition Zposition Yrotation Zrotation Xrotation 
	JOINT Lumbar
	{
		OFFSET 0.000000 0.000000 0.000000 
		CHANNELS 3 Zrotation Xrotation Yrotation
		JOINT Neck
		{
			OFFSET 0.000000 0.445665 0.000000 
			CHANNELS 3 Zrotation Xrotation Yrotation
			End Site
			{
				OFFSET 0.000000 0.227535 0.000000 
			}
		}
		JOINT RightShoulder
		{
			OFFSET 0.019635 0.377685 0.194865 
			CHANNELS 3 Zrotation Xrotation Yrotation
			JOINT RightElbow
			{
				OFFSET 0.000000 -0.243375 0.000000 
				CHANNELS 2 Zrotation Yrotation
				JOINT RightWrist
				{
					OFFSET 0.000000 -0.264825 0.000000 
					CHANNELS 2 Zrotation Xrotation
					End Site
					{
						OFFSET 0.006600 -0.176220 0.000990 
					}
				}
			}
		}
		JOINT LeftShoulder
		{
			OFFSET 0.019635 0.377685 -0.194865 
			CHANNELS 3 Zrotation Xrotation Yrotation
			JOINT LeftElbow
			{
				OFFSET 0.000000 -0.243375 0.000000 
				CHANNELS 2 Zrotation Yrotation
				JOINT LeftWrist
				{
					OFFSET 0.000000 -0.264825 0.000000 
					CHANNELS 2 Zrotation Xrotation
					End Site
					{
						OFFSET 0.006600 -0.176220 -0.000990 
					}
				}
			}
		}
	}
	JOINT RightHip
	{
		OFFSET 0.052140 -0.069960 0.075570 
		CHANNELS 3 Zrotation Xrotation Yrotation
		JOINT RightKnee
		{
			OFFSET 0.000000 -0.402270 0.000000 
			CHANNELS 1 Zrotation
			JOINT RightAnkle
			{
				OFFSET 0.000000 -0.404085 0.000000 
				CHANNELS 3 Zrotation Xrotation Yrotation
				End Site
				{
					OFFSET 0.204105 -0.089430 0.008415 
				}
			}
		}
	}
	JOINT LeftHip
	{
		OFFSET 0.052140 -0.069960 -0.075570 
		CHANNELS 3 Zrotation Xrotation Yrotation
		JOINT LeftKnee
		{
			OFFSET 0.000000 -0.402270 0.000000 
			CHANNELS 1 Zrotation
			JOINT LeftAnkle
			{
				OFFSET 0.000000 -0.404085 0.000000 
				CHANNELS 3 Zrotation Xrotation Yrotation
				End Site
				{
					OFFSET 0.204105 -0.089430 -0.008415 
				}
			}
		}
	}
}
MOTION
Frames: 11
Frame Time: 0.02
-0.00082 -0.00014 0.00105 -175.79919 -30.94666 -2.63293 44.18049 2.77031 -4.91529 -7.70371 -2.03416 -0.86247 -25.44916 -10.97253 -5.89569 32.40301 90.63392 6.64171 0.205 -33.57241 11.57549 3.07452 35.64132 -96.94111 14.52493 -0.38625 34.01012 -1.83113 -12.86421 -21.07368 -7.64873 -3.00206 -3.72162 35.04426 9.27689 8.2627 -26.73173 -8.24065 3.43289 3.98886
-0.00044 -8e-05 0.00068 -175.85294 -30.96411 -2.63228 44.18382 2.74477 -4.94487 -7.76898 -2.0546 -0.86292 -25.03975 -11.08353 -5.58139 32.56738 90.44282 6.63238 0.20099 -32.92646 11.65001 2.67915 35.79613 -96.78603 14.45113 -0.3778 34.06489 -1.79932 -12.81627 -21.05401 -7.65286 -3.00277 -3.7252 35.08334 9.32465 8.40092 -26.73241 -8.2346 3.42207 3.98332
-7e-05 -2e-05 0.00031 -175.90659 -30.98156 -2.63161 44.18707 2.71929 -4.97447 -7.83434 -2.07499 -0.86337 -24.6307 -11.19443 -5.26741 32.73146 90.25226 6.62315 0.19696 -32.2815 11.72454 2.28411 35.95084 -96.63107 14.37739 -0.36934 34.11965 -1.76768 -12.76898 -21.03443 -7.65694 -3.00344 -3.72875 35.12244 9.37225 8.53866 -26.73308 -8.22857 3.4113 3.9778
0.0003 3e-05 -5e-05 -175.96019 -30.99897 -2.63096 44.19038 2.69382 -5.00397 -7.89944 -2.09537 -0.86382 -24.22242 -11.30513 -4.95399 32.89535 90.06174 6.61386 0.19296 -31.63738 11.79886 1.88982 36.10522 -96.47641 14.3038 -0.36091 34.17427 -1.73598 -12.72126 -21.01482 -7.66105 -3.00414 -3.73232 35.16142 9.41986 8.67646 -26.73376 -8.22254 3.40052 3.97228
0.00067 9e-05 -0.00042 -176.01386 -31.01637 -2.63034 44.19377 2.66832 -5.03342 -7.96438 -2.11579 -0.86427 -23.8141 -11.41586 -4.64046 33.05948 89.87069 6.60445 0.18898 -30.99263 11.87309 1.49551 36.25957 -96.32178 14.23021 -0.3525 34.22885 -1.70408 -12.67269 -20.99512 -7.6652 -3.00491 -3.73593 35.20031 9.4676 8.81476 -26.73443 -8.21648 3.3897 3.96673
0.00105 0.00015 -0.00079 -176.06747 -31.03391 -2.62957 44.19672 2.64287 -5.06334 -8.03063 -2.13613 -0.86473 -23.40354 -11.52712 -4.32555 33.22347 89.6812 6.5956 0.18487 -30.34727 11.94827 1.09896 36.41506 -96.16613 14.15616 -0.34396 34.284 -1.67297 -12.6281 -20.9758 -7.66915 -3.00536 -3.73934 35.23986 9.51491 8.95129 -26.73511 -8.21054 3.37902 3.96126
0.00141 0.00021 -0.00115 -176.12113 -31.05114 -2.6291 44.20061 2.61733 -5.09227 -8.0941 -2.15659 -0.86516 -22.99798 -11.63716 -4.01386 33.38747 89.48879 6.58562 0.18103 -29.70387 12.02142 0.70739 36.56802 -96.01269 14.08311 -0.33568 34.33792 -1.64031 -12.57554 -20.95572 -7.6735 -3.00645 -3.74315 35.27803 9.56305 9.09125 -26.73579 -8.20435 3.36808 3.95565
0.00178 0.00027 -0.00152 -176.17477 -31.06866 -2.62834 44.20353 2.5919 -5.12211 -8.16025 -2.17698 -0.86562 -22.58775 -11.74839 -3.69902 33.55161 89.29904 6.57671 0.17691 -29.05862 12.0965 0.31116 36.72344 -95.85726 14.00914 -0.32715 34.39302 -1.60908 -12.53035 -20.93635 -7.67748 -3.00694 -3.74659 35.31751 9.61043 9.22804 -26.73646 -8.1984 3.35737 3.95016
0.00217 0.00033 -0.0019 -176.22831 -31.08654 -2.62727 44.20566 2.5665 -5.15313 -8.22928 -2.19715 -0.86613 -22.17173 -11.86089 -3.38078 33.71543 89.11256 6.56899 0.17255 -28.41087 12.17375 -0.0908 36.88148 -95.69908 13.934 -0.31837 34.44944 -1.5796 -12.49416 -20.9178 -7.681 -3.00674 -3.74956 35.35847 9.65688 9.36103 -26.73713 -8.1927 3.34694 3.94483
0.00248 0.00039 -0.00224 -176.28219 -31.1024 -2.62815 44.21351 2.54061 -5.17756 -8.28059 -2.21818 -0.86637 -21.78873 -11.96553 -3.08345 33.87964 88.90732 6.55408 0.16988 -27.77676 12.23798 -0.45992 37.02328 -95.55573 13.86546 -0.3112 34.49788 -1.54007 -12.40619 -20.89441 -7.68714 -3.01061 -3.75521 35.39058 9.70866 9.51609 -26.73783 -8.18546 3.3349 3.9386
0.00297 0.00044 -0.00265 -176.33551 -31.12247 -2.62479 44.20854 2.51594 -5.21575 -8.36999 -2.23764 -0.86719 -21.3364 -12.08709 -2.74123 34.04393 88.74163 6.55454 0.16349 -27.11449 12.33 -0.89812 37.20005 -95.38177 13.78309 -0.30049 34.56338 -1.5217 -12.42742 -20.88131 -7.68777 -3.00587 -3.75522 35.44152 9.74921 9.62447 -26.73846 -8.18152 3.32629 3.93429
